<svg xmlns="http://www.w3.org/2000/svg" width="1040" height="610" viewBox="0 0 1040 610"><rect width="1040" height="610" fill="#f7f7f7"/><g font-family="Arial, sans-serif"><text x="32" y="40" font-size="24" fill="#222">Restaurant identity palettes</text><text x="32" y="66" font-size="14" fill="#555">Proposals for customer-facing identity; operational status colours remain separate.</text><text x="32" y="116" font-size="19" font-weight="bold" fill="#222">Current</text><rect x="265" y="100" width="126" height="78" rx="8" fill="#F4F2EE" stroke="#b8b8b8"/><text x="265" y="203" font-size="14" fill="#333">Background</text><text x="265" y="226" font-size="15" fill="#333">#F4F2EE</text><rect x="410" y="100" width="126" height="78" rx="8" fill="#FFFFFF" stroke="#b8b8b8"/><text x="410" y="203" font-size="14" fill="#333">Surface</text><text x="410" y="226" font-size="15" fill="#333">#FFFFFF</text><rect x="555" y="100" width="126" height="78" rx="8" fill="#1B1A17" stroke="#b8b8b8"/><text x="555" y="203" font-size="14" fill="#333">Text</text><text x="555" y="226" font-size="15" fill="#333">#1B1A17</text><rect x="700" y="100" width="126" height="78" rx="8" fill="#0F5C4A" stroke="#b8b8b8"/><text x="700" y="203" font-size="14" fill="#333">Primary</text><text x="700" y="226" font-size="15" fill="#333">#0F5C4A</text><rect x="845" y="100" width="126" height="78" rx="8" fill="#8A5A00" stroke="#b8b8b8"/><text x="845" y="203" font-size="14" fill="#333">Secondary</text><text x="845" y="226" font-size="15" fill="#333">#8A5A00</text><text x="32" y="281" font-size="19" font-weight="bold" fill="#222">Modern — proposal</text><rect x="265" y="265" width="126" height="78" rx="8" fill="#F6F5F0" stroke="#b8b8b8"/><text x="265" y="368" font-size="14" fill="#333">Background</text><text x="265" y="391" font-size="15" fill="#333">#F6F5F0</text><rect x="410" y="265" width="126" height="78" rx="8" fill="#FFFFFF" stroke="#b8b8b8"/><text x="410" y="368" font-size="14" fill="#333">Surface</text><text x="410" y="391" font-size="15" fill="#333">#FFFFFF</text><rect x="555" y="265" width="126" height="78" rx="8" fill="#172420" stroke="#b8b8b8"/><text x="555" y="368" font-size="14" fill="#333">Text</text><text x="555" y="391" font-size="15" fill="#333">#172420</text><rect x="700" y="265" width="126" height="78" rx="8" fill="#184C42" stroke="#b8b8b8"/><text x="700" y="368" font-size="14" fill="#333">Primary</text><text x="700" y="391" font-size="15" fill="#333">#184C42</text><rect x="845" y="265" width="126" height="78" rx="8" fill="#D6A24E" stroke="#b8b8b8"/><text x="845" y="368" font-size="14" fill="#333">Secondary</text><text x="845" y="391" font-size="15" fill="#333">#D6A24E</text><text x="32" y="446" font-size="19" font-weight="bold" fill="#222">Classic — proposal</text><rect x="265" y="430" width="126" height="78" rx="8" fill="#F7EEDB" stroke="#b8b8b8"/><text x="265" y="533" font-size="14" fill="#333">Background</text><text x="265" y="556" font-size="15" fill="#333">#F7EEDB</text><rect x="410" y="430" width="126" height="78" rx="8" fill="#FFFCF5" stroke="#b8b8b8"/><text x="410" y="533" font-size="14" fill="#333">Surface</text><text x="410" y="556" font-size="15" fill="#333">#FFFCF5</text><rect x="555" y="430" width="126" height="78" rx="8" fill="#2C211B" stroke="#b8b8b8"/><text x="555" y="533" font-size="14" fill="#333">Text</text><text x="555" y="556" font-size="15" fill="#333">#2C211B</text><rect x="700" y="430" width="126" height="78" rx="8" fill="#75412F" stroke="#b8b8b8"/><text x="700" y="533" font-size="14" fill="#333">Primary</text><text x="700" y="556" font-size="15" fill="#333">#75412F</text><rect x="845" y="430" width="126" height="78" rx="8" fill="#C79B52" stroke="#b8b8b8"/><text x="845" y="533" font-size="14" fill="#333">Secondary</text><text x="845" y="556" font-size="15" fill="#333">#C79B52</text></g></svg>